<mxfile host="app.diagrams.net" modified="2023-03-25T11:54:03.256Z" agent="Mozilla/5.0 (Macintosh; Intel Mac OS X 10_15_7) AppleWebKit/537.36 (KHTML, like Gecko) Chrome/110.0.0.0 Safari/537.36" version="21.1.1" etag="Q_dXXO9VejE7nE9V3cKf" type="github">
  <diagram name="第 1 页" id="fwmrw0L4jgZWi0XCbUvn">
    <mxGraphModel>
      <root>
        <mxCell id="0" />
        <mxCell id="1" parent="0" />
      </root>
    </mxGraphModel>
  </diagram>
</mxfile>
